# xmcd
#
# Track frame offsets: 
#        150
#        14070
#        26970
#        35927
#        52462
#        67102
#        89852
#        118342
#        137695
#        158845
#        169947
#        194512
#        219780
#        230690
#
# Disc length: 3247 seconds
#
# Revision: 0
# Processed by: cddbd v1.5.2PL0 Copyright (c) Steve Scherf et al.
# Submitted via: ExactAudioCopy v1.0b3
#
DISCID=e60cad0e
DTITLE=Mozart W. A. - Mozart. The Symphonies_CD 03
DYEAR=1991
DGENRE=Classical
TTITLE0=Sym. No.10 in G, K.74_ 1. Allegro
TTITLE1=Sym. No.10 in G, K.74_ 2. Andante
TTITLE2=Sym. No.10 in G, K.74_ 3. Allegro
TTITLE3=Sym. No.11 in D, K.84_ 1. Allegro
TTITLE4=Sym. No.11 in D, K.84_ 2. Andante
TTITLE5=Sym. No.11 in D, K.84_ 3. Allegro
TTITLE6=Sym. No.12 in G, K.110_ 1. Allegro
TTITLE7=Sym. No.12 in G, K.110_ 2. Andante
TTITLE8=Sym. No.12 in G, K.110_ 3. Menuetto
TTITLE9=Sym. No.12 in G, K.110_ 4. Allegro
TTITLE10=Sym. No.13 in F, K.112_ 1. Allegro
TTITLE11=Sym. No.13 in F, K.112_ 2. Andante
TTITLE12=Sym. No.13 in F, K.112_ 3. Menuetto
TTITLE13=Sym. No.13 in F, K.112_ 4. Molto Allegro
EXTD=
EXTT0=
EXTT1=
EXTT2=
EXTT3=
EXTT4=
EXTT5=
EXTT6=
EXTT7=
EXTT8=
EXTT9=
EXTT10=
EXTT11=
EXTT12=
EXTT13=
PLAYORDER=
